<mxfile host="app.diagrams.net" agent="Mozilla/5.0 (iPad; CPU OS 18_5_0 like Mac OS X) AppleWebKit/605.1.15 (KHTML, like Gecko) GSA/376.0.777690323 Mobile/15E148 Safari/604.1" version="28.0.1" pages="2">
  <diagram name="หน้า-1" id="SdS4YeKjeR9Krvu_MQd6">
    <mxGraphModel grid="1" page="1" gridSize="10" guides="1" tooltips="1" connect="1" arrows="1" fold="1" pageScale="1" pageWidth="827" pageHeight="1169" math="0" shadow="0">
      <root>
        <mxCell id="0" />
        <mxCell id="1" parent="0" />
        <mxCell id="hnG4WWiMFBisvMHq2FyZ-1" value="ทบทวนสัญลักษณ์" style="swimlane;fontFamily=Sarabun;fontSource=https%3A%2F%2Ffonts.googleapis.com%2Fcss%3Ffamily%3DSarabun;" vertex="1" parent="1">
          <mxGeometry x="-720" y="20" width="640" height="290" as="geometry" />
        </mxCell>
        <mxCell id="hnG4WWiMFBisvMHq2FyZ-2" value="&lt;font data-font-src=&quot;https://fonts.googleapis.com/css?family=Sarabun&quot; face=&quot;Sarabun&quot;&gt;เริ่มต้น&lt;/font&gt;" style="ellipse;whiteSpace=wrap;html=1;" vertex="1" parent="hnG4WWiMFBisvMHq2FyZ-1">
          <mxGeometry x="20" y="40" width="130" height="30" as="geometry" />
        </mxCell>
        <mxCell id="hnG4WWiMFBisvMHq2FyZ-3" value="" style="endArrow=classic;html=1;rounded=0;" edge="1" parent="hnG4WWiMFBisvMHq2FyZ-1">
          <mxGeometry width="50" height="50" relative="1" as="geometry">
            <mxPoint x="84.5" y="70" as="sourcePoint" />
            <mxPoint x="84.5" y="120" as="targetPoint" />
          </mxGeometry>
        </mxCell>
        <mxCell id="hnG4WWiMFBisvMHq2FyZ-4" value="&lt;font face=&quot;Sarabun&quot;&gt;สิ้นสุด&lt;/font&gt;" style="ellipse;whiteSpace=wrap;html=1;" vertex="1" parent="hnG4WWiMFBisvMHq2FyZ-1">
          <mxGeometry x="150" y="90" width="130" height="30" as="geometry" />
        </mxCell>
        <mxCell id="hnG4WWiMFBisvMHq2FyZ-5" value="" style="endArrow=classic;html=1;rounded=0;" edge="1" parent="hnG4WWiMFBisvMHq2FyZ-1">
          <mxGeometry width="50" height="50" relative="1" as="geometry">
            <mxPoint x="214.5" y="40" as="sourcePoint" />
            <mxPoint x="214.5" y="90" as="targetPoint" />
          </mxGeometry>
        </mxCell>
        <mxCell id="hnG4WWiMFBisvMHq2FyZ-6" value="กระบวนการ" style="rounded=0;whiteSpace=wrap;html=1;fontFamily=Sarabun;fontSource=https%3A%2F%2Ffonts.googleapis.com%2Fcss%3Ffamily%3DSarabun;" vertex="1" parent="hnG4WWiMFBisvMHq2FyZ-1">
          <mxGeometry x="320" y="70" width="120" height="30" as="geometry" />
        </mxCell>
        <mxCell id="hnG4WWiMFBisvMHq2FyZ-7" value="" style="endArrow=classic;html=1;rounded=0;" edge="1" parent="hnG4WWiMFBisvMHq2FyZ-1">
          <mxGeometry width="50" height="50" relative="1" as="geometry">
            <mxPoint x="379" y="40" as="sourcePoint" />
            <mxPoint x="379.5" y="70" as="targetPoint" />
          </mxGeometry>
        </mxCell>
        <mxCell id="hnG4WWiMFBisvMHq2FyZ-8" value="" style="endArrow=classic;html=1;rounded=0;" edge="1" parent="hnG4WWiMFBisvMHq2FyZ-1">
          <mxGeometry width="50" height="50" relative="1" as="geometry">
            <mxPoint x="379.75" y="100" as="sourcePoint" />
            <mxPoint x="380.25" y="130" as="targetPoint" />
          </mxGeometry>
        </mxCell>
        <mxCell id="hnG4WWiMFBisvMHq2FyZ-9" value="ประโยคเงื่อนไข" style="rhombus;whiteSpace=wrap;html=1;fontFamily=Sarabun;fontSource=https%3A%2F%2Ffonts.googleapis.com%2Fcss%3Ffamily%3DSarabun;" vertex="1" parent="hnG4WWiMFBisvMHq2FyZ-1">
          <mxGeometry x="490" y="60" width="100" height="60" as="geometry" />
        </mxCell>
        <mxCell id="hnG4WWiMFBisvMHq2FyZ-10" value="" style="endArrow=classic;html=1;rounded=0;" edge="1" parent="hnG4WWiMFBisvMHq2FyZ-1">
          <mxGeometry width="50" height="50" relative="1" as="geometry">
            <mxPoint x="539.71" y="30" as="sourcePoint" />
            <mxPoint x="540.21" y="60" as="targetPoint" />
          </mxGeometry>
        </mxCell>
        <mxCell id="hnG4WWiMFBisvMHq2FyZ-11" value="" style="endArrow=classic;html=1;rounded=0;" edge="1" parent="hnG4WWiMFBisvMHq2FyZ-1">
          <mxGeometry width="50" height="50" relative="1" as="geometry">
            <mxPoint x="539.71" y="120" as="sourcePoint" />
            <mxPoint x="540" y="175" as="targetPoint" />
          </mxGeometry>
        </mxCell>
        <mxCell id="hnG4WWiMFBisvMHq2FyZ-12" value="จริง" style="edgeLabel;html=1;align=center;verticalAlign=middle;resizable=0;points=[];fontFamily=Sarabun;fontSource=https%3A%2F%2Ffonts.googleapis.com%2Fcss%3Ffamily%3DSarabun;" vertex="1" connectable="0" parent="hnG4WWiMFBisvMHq2FyZ-11">
          <mxGeometry x="-0.4142" y="-1" relative="1" as="geometry">
            <mxPoint as="offset" />
          </mxGeometry>
        </mxCell>
        <mxCell id="hnG4WWiMFBisvMHq2FyZ-13" value="" style="endArrow=classic;html=1;rounded=0;exitX=1;exitY=0.5;exitDx=0;exitDy=0;" edge="1" parent="hnG4WWiMFBisvMHq2FyZ-1" source="hnG4WWiMFBisvMHq2FyZ-9">
          <mxGeometry width="50" height="50" relative="1" as="geometry">
            <mxPoint x="620" y="95" as="sourcePoint" />
            <mxPoint x="610" y="175" as="targetPoint" />
            <Array as="points">
              <mxPoint x="610" y="90" />
            </Array>
          </mxGeometry>
        </mxCell>
        <mxCell id="hnG4WWiMFBisvMHq2FyZ-14" value="&lt;font data-font-src=&quot;https://fonts.googleapis.com/css?family=Sarabun&quot; face=&quot;Sarabun&quot;&gt;เท็จ&lt;/font&gt;" style="edgeLabel;html=1;align=center;verticalAlign=middle;resizable=0;points=[];" vertex="1" connectable="0" parent="hnG4WWiMFBisvMHq2FyZ-13">
          <mxGeometry x="-0.0019" y="-2" relative="1" as="geometry">
            <mxPoint as="offset" />
          </mxGeometry>
        </mxCell>
        <mxCell id="hnG4WWiMFBisvMHq2FyZ-15" value="&lt;font data-font-src=&quot;https://fonts.googleapis.com/css?family=Sarabun&quot; face=&quot;Sarabun&quot;&gt;ฟังก์ชัน/โมดูล&lt;/font&gt;" style="shape=process;whiteSpace=wrap;html=1;backgroundOutline=1;" vertex="1" parent="hnG4WWiMFBisvMHq2FyZ-1">
          <mxGeometry x="25" y="180" width="120" height="30" as="geometry" />
        </mxCell>
        <mxCell id="hnG4WWiMFBisvMHq2FyZ-16" value="" style="endArrow=classic;html=1;rounded=0;" edge="1" parent="hnG4WWiMFBisvMHq2FyZ-1">
          <mxGeometry width="50" height="50" relative="1" as="geometry">
            <mxPoint x="84.70999999999998" y="150" as="sourcePoint" />
            <mxPoint x="85.20999999999998" y="180" as="targetPoint" />
          </mxGeometry>
        </mxCell>
        <mxCell id="hnG4WWiMFBisvMHq2FyZ-17" value="" style="endArrow=classic;html=1;rounded=0;" edge="1" parent="hnG4WWiMFBisvMHq2FyZ-1">
          <mxGeometry width="50" height="50" relative="1" as="geometry">
            <mxPoint x="84.70999999999998" y="210" as="sourcePoint" />
            <mxPoint x="85.20999999999998" y="240" as="targetPoint" />
          </mxGeometry>
        </mxCell>
        <mxCell id="hnG4WWiMFBisvMHq2FyZ-18" value="" style="strokeWidth=2;html=1;shape=mxgraph.flowchart.start_2;whiteSpace=wrap;" vertex="1" parent="hnG4WWiMFBisvMHq2FyZ-1">
          <mxGeometry x="205" y="185" width="20" height="20" as="geometry" />
        </mxCell>
        <mxCell id="hnG4WWiMFBisvMHq2FyZ-19" value="" style="endArrow=classic;html=1;rounded=0;" edge="1" parent="hnG4WWiMFBisvMHq2FyZ-1">
          <mxGeometry width="50" height="50" relative="1" as="geometry">
            <mxPoint x="214.70999999999998" y="155" as="sourcePoint" />
            <mxPoint x="215.20999999999998" y="185" as="targetPoint" />
          </mxGeometry>
        </mxCell>
        <mxCell id="hnG4WWiMFBisvMHq2FyZ-20" value="" style="endArrow=classic;html=1;rounded=0;entryX=0;entryY=0.5;entryDx=0;entryDy=0;entryPerimeter=0;" edge="1" parent="hnG4WWiMFBisvMHq2FyZ-1" target="hnG4WWiMFBisvMHq2FyZ-18">
          <mxGeometry width="50" height="50" relative="1" as="geometry">
            <mxPoint x="189.99999999999997" y="155" as="sourcePoint" />
            <mxPoint x="190.49999999999997" y="185" as="targetPoint" />
            <Array as="points">
              <mxPoint x="190" y="180" />
            </Array>
          </mxGeometry>
        </mxCell>
        <mxCell id="hnG4WWiMFBisvMHq2FyZ-21" value="" style="endArrow=classic;html=1;rounded=0;entryX=1;entryY=0.5;entryDx=0;entryDy=0;entryPerimeter=0;" edge="1" parent="hnG4WWiMFBisvMHq2FyZ-1" target="hnG4WWiMFBisvMHq2FyZ-18">
          <mxGeometry width="50" height="50" relative="1" as="geometry">
            <mxPoint x="239.99999999999997" y="155" as="sourcePoint" />
            <mxPoint x="240.49999999999997" y="185" as="targetPoint" />
            <Array as="points">
              <mxPoint x="240" y="180" />
            </Array>
          </mxGeometry>
        </mxCell>
        <mxCell id="hnG4WWiMFBisvMHq2FyZ-22" value="" style="endArrow=classic;html=1;rounded=0;" edge="1" parent="hnG4WWiMFBisvMHq2FyZ-1">
          <mxGeometry width="50" height="50" relative="1" as="geometry">
            <mxPoint x="214.70999999999998" y="205" as="sourcePoint" />
            <mxPoint x="215.20999999999998" y="235" as="targetPoint" />
          </mxGeometry>
        </mxCell>
        <mxCell id="hnG4WWiMFBisvMHq2FyZ-23" value="&lt;font data-font-src=&quot;https://fonts.googleapis.com/css?family=Sarabun&quot; face=&quot;Sarabun&quot;&gt;ตัวเชื่อม&lt;/font&gt;" style="text;html=1;align=center;verticalAlign=middle;resizable=0;points=[];autosize=1;strokeColor=none;fillColor=none;" vertex="1" parent="hnG4WWiMFBisvMHq2FyZ-1">
          <mxGeometry x="220" y="190" width="60" height="30" as="geometry" />
        </mxCell>
        <mxCell id="hnG4WWiMFBisvMHq2FyZ-24" value="" style="endArrow=classic;html=1;rounded=0;" edge="1" parent="hnG4WWiMFBisvMHq2FyZ-1">
          <mxGeometry width="50" height="50" relative="1" as="geometry">
            <mxPoint x="353.71" y="165" as="sourcePoint" />
            <mxPoint x="354.21" y="195" as="targetPoint" />
          </mxGeometry>
        </mxCell>
        <mxCell id="hnG4WWiMFBisvMHq2FyZ-25" value="" style="verticalLabelPosition=bottom;verticalAlign=top;html=1;shape=offPageConnector;rounded=0;size=0.5;" vertex="1" parent="hnG4WWiMFBisvMHq2FyZ-1">
          <mxGeometry x="339" y="195" width="30" height="30" as="geometry" />
        </mxCell>
        <mxCell id="hnG4WWiMFBisvMHq2FyZ-26" value="" style="endArrow=classic;html=1;rounded=0;" edge="1" parent="hnG4WWiMFBisvMHq2FyZ-1">
          <mxGeometry width="50" height="50" relative="1" as="geometry">
            <mxPoint x="405.71" y="195" as="sourcePoint" />
            <mxPoint x="406.21" y="225" as="targetPoint" />
          </mxGeometry>
        </mxCell>
        <mxCell id="hnG4WWiMFBisvMHq2FyZ-27" value="" style="verticalLabelPosition=bottom;verticalAlign=top;html=1;shape=offPageConnector;rounded=0;size=0.5;" vertex="1" parent="hnG4WWiMFBisvMHq2FyZ-1">
          <mxGeometry x="391" y="165" width="30" height="30" as="geometry" />
        </mxCell>
        <mxCell id="hnG4WWiMFBisvMHq2FyZ-28" value="หน้าต่อไป" style="text;html=1;align=center;verticalAlign=middle;resizable=0;points=[];autosize=1;strokeColor=none;fillColor=none;fontFamily=Sarabun;fontSource=https%3A%2F%2Ffonts.googleapis.com%2Fcss%3Ffamily%3DSarabun;" vertex="1" parent="hnG4WWiMFBisvMHq2FyZ-1">
          <mxGeometry x="345" y="220" width="70" height="30" as="geometry" />
        </mxCell>
        <mxCell id="hnG4WWiMFBisvMHq2FyZ-29" value="ก" style="text;html=1;align=center;verticalAlign=middle;resizable=0;points=[];autosize=1;strokeColor=none;fillColor=none;fontFamily=Sarabun;fontSource=https%3A%2F%2Ffonts.googleapis.com%2Fcss%3Ffamily%3DSarabun;" vertex="1" parent="hnG4WWiMFBisvMHq2FyZ-1">
          <mxGeometry x="339" y="190" width="30" height="30" as="geometry" />
        </mxCell>
        <mxCell id="hnG4WWiMFBisvMHq2FyZ-30" value="ก" style="text;html=1;align=center;verticalAlign=middle;resizable=0;points=[];autosize=1;strokeColor=none;fillColor=none;fontFamily=Sarabun;fontSource=https%3A%2F%2Ffonts.googleapis.com%2Fcss%3Ffamily%3DSarabun;" vertex="1" parent="hnG4WWiMFBisvMHq2FyZ-1">
          <mxGeometry x="391" y="160" width="30" height="30" as="geometry" />
        </mxCell>
        <mxCell id="hnG4WWiMFBisvMHq2FyZ-31" value="แสดงผล/รับค่า" style="shape=parallelogram;perimeter=parallelogramPerimeter;whiteSpace=wrap;html=1;fixedSize=1;fontFamily=Sarabun;fontSource=https%3A%2F%2Ffonts.googleapis.com%2Fcss%3Ffamily%3DSarabun;" vertex="1" parent="hnG4WWiMFBisvMHq2FyZ-1">
          <mxGeometry x="450" y="210" width="120" height="30" as="geometry" />
        </mxCell>
        <mxCell id="hnG4WWiMFBisvMHq2FyZ-32" value="" style="endArrow=classic;html=1;rounded=0;" edge="1" parent="hnG4WWiMFBisvMHq2FyZ-1">
          <mxGeometry width="50" height="50" relative="1" as="geometry">
            <mxPoint x="509.71" y="180" as="sourcePoint" />
            <mxPoint x="510.21" y="210" as="targetPoint" />
          </mxGeometry>
        </mxCell>
        <mxCell id="hnG4WWiMFBisvMHq2FyZ-33" value="" style="endArrow=classic;html=1;rounded=0;" edge="1" parent="hnG4WWiMFBisvMHq2FyZ-1">
          <mxGeometry width="50" height="50" relative="1" as="geometry">
            <mxPoint x="509.71" y="240" as="sourcePoint" />
            <mxPoint x="510.21" y="270" as="targetPoint" />
          </mxGeometry>
        </mxCell>
        <mxCell id="hnG4WWiMFBisvMHq2FyZ-34" value="แก้ไขโจทย์ปัญหา" style="swimlane;fontFamily=Sarabun;fontSource=https%3A%2F%2Ffonts.googleapis.com%2Fcss%3Ffamily%3DSarabun;" vertex="1" parent="1">
          <mxGeometry x="-810" y="585" width="810" height="2385" as="geometry" />
        </mxCell>
        <mxCell id="hnG4WWiMFBisvMHq2FyZ-80" value="" style="edgeStyle=none;curved=1;rounded=0;orthogonalLoop=1;jettySize=auto;html=1;fontSize=12;startSize=8;endSize=8;" edge="1" parent="hnG4WWiMFBisvMHq2FyZ-34" source="hnG4WWiMFBisvMHq2FyZ-35">
          <mxGeometry relative="1" as="geometry">
            <mxPoint x="390" y="95" as="targetPoint" />
          </mxGeometry>
        </mxCell>
        <mxCell id="hnG4WWiMFBisvMHq2FyZ-35" value="&lt;font data-font-src=&quot;https://fonts.googleapis.com/css?family=Sarabun&quot; face=&quot;Sarabun&quot;&gt;เริ่มต้น&lt;/font&gt;" style="ellipse;whiteSpace=wrap;html=1;" vertex="1" parent="hnG4WWiMFBisvMHq2FyZ-34">
          <mxGeometry x="325" y="50" width="130" height="30" as="geometry" />
        </mxCell>
        <mxCell id="hnG4WWiMFBisvMHq2FyZ-48" value="" style="edgeStyle=none;curved=1;rounded=0;orthogonalLoop=1;jettySize=auto;html=1;fontSize=12;startSize=8;endSize=8;" edge="1" parent="hnG4WWiMFBisvMHq2FyZ-34" source="hnG4WWiMFBisvMHq2FyZ-39" target="hnG4WWiMFBisvMHq2FyZ-47">
          <mxGeometry relative="1" as="geometry" />
        </mxCell>
        <mxCell id="hnG4WWiMFBisvMHq2FyZ-39" value="แสดงประเภทสินค้า&lt;div&gt;1. น้ำ &amp;nbsp;2. ขนม&lt;/div&gt;" style="whiteSpace=wrap;html=1;" vertex="1" parent="hnG4WWiMFBisvMHq2FyZ-34">
          <mxGeometry x="330" y="121" width="120" height="60" as="geometry" />
        </mxCell>
        <mxCell id="hnG4WWiMFBisvMHq2FyZ-50" value="" style="edgeStyle=orthogonalEdgeStyle;rounded=0;orthogonalLoop=1;jettySize=auto;html=1;fontSize=12;startSize=8;endSize=8;" edge="1" parent="hnG4WWiMFBisvMHq2FyZ-34" source="hnG4WWiMFBisvMHq2FyZ-47" target="hnG4WWiMFBisvMHq2FyZ-49">
          <mxGeometry relative="1" as="geometry">
            <Array as="points">
              <mxPoint x="180" y="235" />
            </Array>
          </mxGeometry>
        </mxCell>
        <mxCell id="hnG4WWiMFBisvMHq2FyZ-52" value="" style="edgeStyle=orthogonalEdgeStyle;rounded=0;orthogonalLoop=1;jettySize=auto;html=1;fontSize=12;startSize=8;endSize=8;" edge="1" parent="hnG4WWiMFBisvMHq2FyZ-34" source="hnG4WWiMFBisvMHq2FyZ-47">
          <mxGeometry relative="1" as="geometry">
            <mxPoint x="610" y="259" as="targetPoint" />
            <Array as="points">
              <mxPoint x="610" y="235" />
            </Array>
          </mxGeometry>
        </mxCell>
        <mxCell id="hnG4WWiMFBisvMHq2FyZ-47" value="ประเภทที่มีให้ลูกค้าเลือก" style="rhombus;whiteSpace=wrap;html=1;" vertex="1" parent="hnG4WWiMFBisvMHq2FyZ-34">
          <mxGeometry x="315" y="195" width="150" height="80" as="geometry" />
        </mxCell>
        <mxCell id="hnG4WWiMFBisvMHq2FyZ-58" value="" style="edgeStyle=none;curved=1;rounded=0;orthogonalLoop=1;jettySize=auto;html=1;fontSize=12;startSize=8;endSize=8;" edge="1" parent="hnG4WWiMFBisvMHq2FyZ-34" source="hnG4WWiMFBisvMHq2FyZ-49" target="hnG4WWiMFBisvMHq2FyZ-54">
          <mxGeometry relative="1" as="geometry" />
        </mxCell>
        <mxCell id="hnG4WWiMFBisvMHq2FyZ-49" value="&lt;div&gt;แสดงเมนูเครื่องดื่ม&lt;br&gt;&lt;/div&gt;&lt;div style=&quot;&quot;&gt;&lt;span style=&quot;white-space: pre;&quot;&gt;1.โค๊กกระป๋องละ 10 บาท&lt;/span&gt;&lt;br&gt;&lt;/div&gt;&lt;div style=&quot;&quot;&gt;&lt;span style=&quot;white-space: pre;&quot;&gt;2. น้ำเขียวกระป๋องละ 12 บาท&lt;/span&gt;&lt;/div&gt;&lt;div style=&quot;&quot;&gt;&lt;span style=&quot;white-space: pre;&quot;&gt;3. อเมริกาโน่ 30 บาท&lt;/span&gt;&lt;/div&gt;&lt;div style=&quot;&quot;&gt;&lt;span style=&quot;white-space: pre;&quot;&gt;4. ลาเต้หวานเจี๊ยบบ 35 บาท &lt;/span&gt;&lt;/div&gt;" style="whiteSpace=wrap;html=1;align=left;" vertex="1" parent="hnG4WWiMFBisvMHq2FyZ-34">
          <mxGeometry x="80" y="266" width="210" height="80" as="geometry" />
        </mxCell>
        <mxCell id="hnG4WWiMFBisvMHq2FyZ-57" value="" style="edgeStyle=none;curved=1;rounded=0;orthogonalLoop=1;jettySize=auto;html=1;fontSize=12;startSize=8;endSize=8;" edge="1" parent="hnG4WWiMFBisvMHq2FyZ-34" source="hnG4WWiMFBisvMHq2FyZ-53" target="hnG4WWiMFBisvMHq2FyZ-56">
          <mxGeometry relative="1" as="geometry" />
        </mxCell>
        <mxCell id="hnG4WWiMFBisvMHq2FyZ-53" value="&lt;div&gt;แสดงเมนูขนม&lt;br&gt;&lt;/div&gt;&lt;div style=&quot;&quot;&gt;&lt;span style=&quot;white-space: pre;&quot;&gt;1.เมล็ดทานตะวัน 13 บาท&lt;/span&gt;&lt;br&gt;&lt;/div&gt;&lt;div style=&quot;&quot;&gt;&lt;span style=&quot;white-space: pre;&quot;&gt;2. ถั่วแปบ 20 บาท&lt;/span&gt;&lt;/div&gt;&lt;div style=&quot;&quot;&gt;&lt;span style=&quot;white-space: pre;&quot;&gt;3. จิ้นส้มหมก 15 บาท&lt;/span&gt;&lt;span style=&quot;white-space: pre;&quot;&gt; &lt;/span&gt;&lt;/div&gt;" style="whiteSpace=wrap;html=1;align=left;" vertex="1" parent="hnG4WWiMFBisvMHq2FyZ-34">
          <mxGeometry x="508" y="260" width="210" height="80" as="geometry" />
        </mxCell>
        <mxCell id="hnG4WWiMFBisvMHq2FyZ-70" value="" style="edgeStyle=orthogonalEdgeStyle;rounded=0;orthogonalLoop=1;jettySize=auto;html=1;fontSize=12;startSize=8;endSize=8;" edge="1" parent="hnG4WWiMFBisvMHq2FyZ-34" source="hnG4WWiMFBisvMHq2FyZ-54" target="hnG4WWiMFBisvMHq2FyZ-69">
          <mxGeometry relative="1" as="geometry">
            <Array as="points">
              <mxPoint x="185" y="479" />
            </Array>
          </mxGeometry>
        </mxCell>
        <mxCell id="hnG4WWiMFBisvMHq2FyZ-54" value="ลูกค้าเลือกเครื่องดื่ม" style="whiteSpace=wrap;html=1;align=center;" vertex="1" parent="hnG4WWiMFBisvMHq2FyZ-34">
          <mxGeometry x="125" y="379" width="120" height="60" as="geometry" />
        </mxCell>
        <mxCell id="hnG4WWiMFBisvMHq2FyZ-68" value="" style="edgeStyle=orthogonalEdgeStyle;rounded=0;orthogonalLoop=1;jettySize=auto;html=1;fontSize=12;startSize=8;endSize=8;" edge="1" parent="hnG4WWiMFBisvMHq2FyZ-34" source="hnG4WWiMFBisvMHq2FyZ-56" target="hnG4WWiMFBisvMHq2FyZ-67">
          <mxGeometry relative="1" as="geometry">
            <Array as="points">
              <mxPoint x="613" y="479" />
            </Array>
          </mxGeometry>
        </mxCell>
        <mxCell id="hnG4WWiMFBisvMHq2FyZ-56" value="ลูกค้าเลือกขนม" style="whiteSpace=wrap;html=1;align=center;" vertex="1" parent="hnG4WWiMFBisvMHq2FyZ-34">
          <mxGeometry x="553" y="379" width="120" height="60" as="geometry" />
        </mxCell>
        <mxCell id="hnG4WWiMFBisvMHq2FyZ-66" value="" style="whiteSpace=wrap;html=1;" vertex="1" parent="hnG4WWiMFBisvMHq2FyZ-34">
          <mxGeometry x="345" y="449" width="120" height="60" as="geometry" />
        </mxCell>
        <mxCell id="hnG4WWiMFBisvMHq2FyZ-67" value="" style="whiteSpace=wrap;html=1;" vertex="1" parent="hnG4WWiMFBisvMHq2FyZ-34">
          <mxGeometry x="345" y="449" width="120" height="60" as="geometry" />
        </mxCell>
        <mxCell id="hnG4WWiMFBisvMHq2FyZ-69" value="เพิ่มในรายการและคำนวณยอดรวม" style="whiteSpace=wrap;html=1;" vertex="1" parent="hnG4WWiMFBisvMHq2FyZ-34">
          <mxGeometry x="345" y="449" width="120" height="60" as="geometry" />
        </mxCell>
        <mxCell id="hnG4WWiMFBisvMHq2FyZ-71" value="" style="endArrow=classic;html=1;rounded=0;" edge="1" parent="hnG4WWiMFBisvMHq2FyZ-34">
          <mxGeometry width="50" height="50" relative="1" as="geometry">
            <mxPoint x="401.71" y="664" as="sourcePoint" />
            <mxPoint x="402.21" y="694" as="targetPoint" />
          </mxGeometry>
        </mxCell>
        <mxCell id="hnG4WWiMFBisvMHq2FyZ-72" value="" style="verticalLabelPosition=bottom;verticalAlign=top;html=1;shape=offPageConnector;rounded=0;size=0.5;" vertex="1" parent="hnG4WWiMFBisvMHq2FyZ-34">
          <mxGeometry x="387" y="634" width="30" height="30" as="geometry" />
        </mxCell>
        <mxCell id="hnG4WWiMFBisvMHq2FyZ-73" value="ก" style="text;html=1;align=center;verticalAlign=middle;resizable=0;points=[];autosize=1;strokeColor=none;fillColor=none;fontFamily=Sarabun;fontSource=https%3A%2F%2Ffonts.googleapis.com%2Fcss%3Ffamily%3DSarabun;" vertex="1" parent="hnG4WWiMFBisvMHq2FyZ-34">
          <mxGeometry x="387" y="629" width="30" height="30" as="geometry" />
        </mxCell>
        <mxCell id="hnG4WWiMFBisvMHq2FyZ-74" value="" style="endArrow=classic;html=1;rounded=0;" edge="1" parent="hnG4WWiMFBisvMHq2FyZ-34">
          <mxGeometry width="50" height="50" relative="1" as="geometry">
            <mxPoint x="401.71" y="509" as="sourcePoint" />
            <mxPoint x="402.21" y="539" as="targetPoint" />
          </mxGeometry>
        </mxCell>
        <mxCell id="hnG4WWiMFBisvMHq2FyZ-75" value="" style="verticalLabelPosition=bottom;verticalAlign=top;html=1;shape=offPageConnector;rounded=0;size=0.5;" vertex="1" parent="hnG4WWiMFBisvMHq2FyZ-34">
          <mxGeometry x="387" y="539" width="30" height="30" as="geometry" />
        </mxCell>
        <mxCell id="hnG4WWiMFBisvMHq2FyZ-76" value="ก" style="text;html=1;align=center;verticalAlign=middle;resizable=0;points=[];autosize=1;strokeColor=none;fillColor=none;fontFamily=Sarabun;fontSource=https%3A%2F%2Ffonts.googleapis.com%2Fcss%3Ffamily%3DSarabun;" vertex="1" parent="hnG4WWiMFBisvMHq2FyZ-34">
          <mxGeometry x="387" y="534" width="30" height="30" as="geometry" />
        </mxCell>
        <mxCell id="hnG4WWiMFBisvMHq2FyZ-88" value="" style="edgeStyle=none;curved=1;rounded=0;orthogonalLoop=1;jettySize=auto;html=1;fontSize=12;startSize=8;endSize=8;" edge="1" parent="hnG4WWiMFBisvMHq2FyZ-34" source="hnG4WWiMFBisvMHq2FyZ-77" target="hnG4WWiMFBisvMHq2FyZ-87">
          <mxGeometry relative="1" as="geometry" />
        </mxCell>
        <mxCell id="hnG4WWiMFBisvMHq2FyZ-77" value="ต้องการเลือกเพิ่มไหม" style="rhombus;whiteSpace=wrap;html=1;" vertex="1" parent="hnG4WWiMFBisvMHq2FyZ-34">
          <mxGeometry x="337" y="696" width="130" height="80" as="geometry" />
        </mxCell>
        <mxCell id="hnG4WWiMFBisvMHq2FyZ-78" value="" style="edgeStyle=orthogonalEdgeStyle;orthogonalLoop=1;jettySize=auto;html=1;rounded=0;fontSize=12;startSize=8;endSize=8;" edge="1" parent="hnG4WWiMFBisvMHq2FyZ-34">
          <mxGeometry width="140" relative="1" as="geometry">
            <mxPoint x="472" y="736" as="sourcePoint" />
            <mxPoint x="392" y="97" as="targetPoint" />
            <Array as="points">
              <mxPoint x="465" y="736" />
              <mxPoint x="732" y="736" />
              <mxPoint x="732" y="97" />
            </Array>
          </mxGeometry>
        </mxCell>
        <mxCell id="hnG4WWiMFBisvMHq2FyZ-81" value="" style="ellipse;whiteSpace=wrap;html=1;" vertex="1" parent="hnG4WWiMFBisvMHq2FyZ-34">
          <mxGeometry x="385" y="95" width="10" height="10" as="geometry" />
        </mxCell>
        <mxCell id="hnG4WWiMFBisvMHq2FyZ-83" value="" style="edgeStyle=none;curved=1;rounded=0;orthogonalLoop=1;jettySize=auto;html=1;fontSize=12;startSize=8;endSize=8;" edge="1" parent="hnG4WWiMFBisvMHq2FyZ-34">
          <mxGeometry relative="1" as="geometry">
            <mxPoint x="389.88" y="106" as="sourcePoint" />
            <mxPoint x="389.88" y="121" as="targetPoint" />
          </mxGeometry>
        </mxCell>
        <mxCell id="hnG4WWiMFBisvMHq2FyZ-85" value="Yes ( ต้องการ )" style="text;html=1;align=center;verticalAlign=middle;resizable=0;points=[];autosize=1;strokeColor=none;fillColor=none;fontSize=12;" vertex="1" parent="hnG4WWiMFBisvMHq2FyZ-34">
          <mxGeometry x="495" y="699.5" width="100" height="30" as="geometry" />
        </mxCell>
        <mxCell id="hnG4WWiMFBisvMHq2FyZ-86" value="No ( ไม่ต้องการ )" style="text;html=1;align=center;verticalAlign=middle;resizable=0;points=[];autosize=1;strokeColor=none;fillColor=none;fontSize=12;" vertex="1" parent="hnG4WWiMFBisvMHq2FyZ-34">
          <mxGeometry x="435" y="762" width="110" height="30" as="geometry" />
        </mxCell>
        <mxCell id="hnG4WWiMFBisvMHq2FyZ-91" value="" style="edgeStyle=none;curved=1;rounded=0;orthogonalLoop=1;jettySize=auto;html=1;fontSize=12;startSize=8;endSize=8;" edge="1" parent="hnG4WWiMFBisvMHq2FyZ-34" source="hnG4WWiMFBisvMHq2FyZ-87" target="hnG4WWiMFBisvMHq2FyZ-90">
          <mxGeometry relative="1" as="geometry" />
        </mxCell>
        <mxCell id="hnG4WWiMFBisvMHq2FyZ-87" value="คำนวณยอดรวมทั้งหมด" style="whiteSpace=wrap;html=1;" vertex="1" parent="hnG4WWiMFBisvMHq2FyZ-34">
          <mxGeometry x="342" y="795" width="120" height="60" as="geometry" />
        </mxCell>
        <mxCell id="hnG4WWiMFBisvMHq2FyZ-90" value="แสดงรายการสินค้าปัจจุบันและยอดรวมสินค้าชั่วคราว" style="shape=parallelogram;perimeter=parallelogramPerimeter;whiteSpace=wrap;html=1;fixedSize=1;" vertex="1" parent="hnG4WWiMFBisvMHq2FyZ-34">
          <mxGeometry x="279" y="875" width="250" height="45" as="geometry" />
        </mxCell>
        <mxCell id="hnG4WWiMFBisvMHq2FyZ-99" value="" style="edgeStyle=none;curved=1;rounded=0;orthogonalLoop=1;jettySize=auto;html=1;fontSize=12;startSize=8;endSize=8;" edge="1" parent="hnG4WWiMFBisvMHq2FyZ-34" source="hnG4WWiMFBisvMHq2FyZ-92" target="hnG4WWiMFBisvMHq2FyZ-98">
          <mxGeometry relative="1" as="geometry" />
        </mxCell>
        <mxCell id="hnG4WWiMFBisvMHq2FyZ-92" value="รับเงินจากลูกค้า" style="shape=parallelogram;perimeter=parallelogramPerimeter;whiteSpace=wrap;html=1;fixedSize=1;" vertex="1" parent="hnG4WWiMFBisvMHq2FyZ-34">
          <mxGeometry x="330" y="970" width="150" height="60" as="geometry" />
        </mxCell>
        <mxCell id="hnG4WWiMFBisvMHq2FyZ-102" value="" style="edgeStyle=none;curved=1;rounded=0;orthogonalLoop=1;jettySize=auto;html=1;fontSize=12;startSize=8;endSize=8;" edge="1" parent="hnG4WWiMFBisvMHq2FyZ-34" source="hnG4WWiMFBisvMHq2FyZ-98" target="hnG4WWiMFBisvMHq2FyZ-101">
          <mxGeometry relative="1" as="geometry" />
        </mxCell>
        <mxCell id="hnG4WWiMFBisvMHq2FyZ-98" value="เงินครบไหม" style="rhombus;whiteSpace=wrap;html=1;" vertex="1" parent="hnG4WWiMFBisvMHq2FyZ-34">
          <mxGeometry x="365" y="1060" width="80" height="80" as="geometry" />
        </mxCell>
        <mxCell id="hnG4WWiMFBisvMHq2FyZ-110" value="" style="edgeStyle=none;curved=1;rounded=0;orthogonalLoop=1;jettySize=auto;html=1;fontSize=12;startSize=8;endSize=8;" edge="1" parent="hnG4WWiMFBisvMHq2FyZ-34" source="hnG4WWiMFBisvMHq2FyZ-101" target="hnG4WWiMFBisvMHq2FyZ-109">
          <mxGeometry relative="1" as="geometry" />
        </mxCell>
        <mxCell id="hnG4WWiMFBisvMHq2FyZ-101" value="แจ้งเตือนลูกค้าและรับเงินเพิ่ม" style="whiteSpace=wrap;html=1;" vertex="1" parent="hnG4WWiMFBisvMHq2FyZ-34">
          <mxGeometry x="640" y="1070" width="120" height="60" as="geometry" />
        </mxCell>
        <mxCell id="hnG4WWiMFBisvMHq2FyZ-118" value="" style="edgeStyle=orthogonalEdgeStyle;rounded=0;orthogonalLoop=1;jettySize=auto;html=1;fontSize=12;startSize=8;endSize=8;exitX=0.071;exitY=0.501;exitDx=0;exitDy=0;exitPerimeter=0;" edge="1" parent="hnG4WWiMFBisvMHq2FyZ-34" source="hnG4WWiMFBisvMHq2FyZ-109">
          <mxGeometry relative="1" as="geometry">
            <mxPoint x="405" y="939" as="targetPoint" />
            <mxPoint x="630" y="939" as="sourcePoint" />
          </mxGeometry>
        </mxCell>
        <mxCell id="hnG4WWiMFBisvMHq2FyZ-123" value="" style="edgeStyle=orthogonalEdgeStyle;rounded=0;orthogonalLoop=1;jettySize=auto;html=1;fontSize=12;startSize=8;endSize=8;exitX=1;exitY=0.5;exitDx=0;exitDy=0;" edge="1" parent="hnG4WWiMFBisvMHq2FyZ-34" source="hnG4WWiMFBisvMHq2FyZ-109">
          <mxGeometry relative="1" as="geometry">
            <mxPoint x="766" y="929" as="sourcePoint" />
            <mxPoint x="392.54" y="104" as="targetPoint" />
            <Array as="points">
              <mxPoint x="773" y="935" />
              <mxPoint x="773" y="104" />
            </Array>
          </mxGeometry>
        </mxCell>
        <mxCell id="hnG4WWiMFBisvMHq2FyZ-109" value="ลูกค้าจ่ายเพิ่มไหม" style="rhombus;whiteSpace=wrap;html=1;" vertex="1" parent="hnG4WWiMFBisvMHq2FyZ-34">
          <mxGeometry x="630" y="895" width="140" height="80" as="geometry" />
        </mxCell>
        <mxCell id="hnG4WWiMFBisvMHq2FyZ-119" value="Yes ( ลูกค้าจ่ายเพิ่ม )" style="text;html=1;align=center;verticalAlign=middle;resizable=0;points=[];autosize=1;strokeColor=none;fillColor=none;fontSize=12;" vertex="1" parent="hnG4WWiMFBisvMHq2FyZ-34">
          <mxGeometry x="520" y="882.5" width="130" height="30" as="geometry" />
        </mxCell>
        <mxCell id="hnG4WWiMFBisvMHq2FyZ-103" value="No ( ไม่ครบ )" style="text;html=1;align=center;verticalAlign=middle;resizable=0;points=[];autosize=1;strokeColor=none;fillColor=none;fontSize=12;" vertex="1" parent="hnG4WWiMFBisvMHq2FyZ-34">
          <mxGeometry x="450" y="1060" width="90" height="30" as="geometry" />
        </mxCell>
        <mxCell id="hnG4WWiMFBisvMHq2FyZ-124" value="NO ( ไม่จ่าย )" style="text;html=1;align=center;verticalAlign=middle;resizable=0;points=[];autosize=1;strokeColor=none;fillColor=none;fontSize=12;" vertex="1" parent="hnG4WWiMFBisvMHq2FyZ-34">
          <mxGeometry x="690" y="865" width="90" height="30" as="geometry" />
        </mxCell>
        <mxCell id="hnG4WWiMFBisvMHq2FyZ-126" value="Yes ( ครบ )" style="text;html=1;align=center;verticalAlign=middle;resizable=0;points=[];autosize=1;strokeColor=none;fillColor=none;fontSize=12;" vertex="1" parent="hnG4WWiMFBisvMHq2FyZ-34">
          <mxGeometry x="415" y="1125" width="80" height="30" as="geometry" />
        </mxCell>
        <mxCell id="hnG4WWiMFBisvMHq2FyZ-130" value="" style="edgeStyle=none;curved=1;rounded=0;orthogonalLoop=1;jettySize=auto;html=1;fontSize=12;startSize=8;endSize=8;" edge="1" parent="hnG4WWiMFBisvMHq2FyZ-34" target="hnG4WWiMFBisvMHq2FyZ-129">
          <mxGeometry relative="1" as="geometry">
            <mxPoint x="405" y="1140" as="sourcePoint" />
          </mxGeometry>
        </mxCell>
        <mxCell id="hnG4WWiMFBisvMHq2FyZ-132" value="" style="edgeStyle=none;curved=1;rounded=0;orthogonalLoop=1;jettySize=auto;html=1;fontSize=12;startSize=8;endSize=8;" edge="1" parent="hnG4WWiMFBisvMHq2FyZ-34" source="hnG4WWiMFBisvMHq2FyZ-129" target="hnG4WWiMFBisvMHq2FyZ-131">
          <mxGeometry relative="1" as="geometry" />
        </mxCell>
        <mxCell id="hnG4WWiMFBisvMHq2FyZ-129" value="คำนวณเงินทอนตรวจสอบเหรียญและธนบัตรในตู้" style="whiteSpace=wrap;html=1;" vertex="1" parent="hnG4WWiMFBisvMHq2FyZ-34">
          <mxGeometry x="310" y="1166" width="190" height="60" as="geometry" />
        </mxCell>
        <mxCell id="hnG4WWiMFBisvMHq2FyZ-134" value="" style="edgeStyle=orthogonalEdgeStyle;rounded=0;orthogonalLoop=1;jettySize=auto;html=1;fontSize=12;startSize=8;endSize=8;" edge="1" parent="hnG4WWiMFBisvMHq2FyZ-34" source="hnG4WWiMFBisvMHq2FyZ-131" target="hnG4WWiMFBisvMHq2FyZ-133">
          <mxGeometry relative="1" as="geometry">
            <Array as="points">
              <mxPoint x="630" y="1295" />
            </Array>
          </mxGeometry>
        </mxCell>
        <mxCell id="hnG4WWiMFBisvMHq2FyZ-141" value="" style="edgeStyle=orthogonalEdgeStyle;rounded=0;orthogonalLoop=1;jettySize=auto;html=1;fontSize=12;startSize=8;endSize=8;" edge="1" parent="hnG4WWiMFBisvMHq2FyZ-34" source="hnG4WWiMFBisvMHq2FyZ-131" target="hnG4WWiMFBisvMHq2FyZ-140">
          <mxGeometry relative="1" as="geometry" />
        </mxCell>
        <mxCell id="hnG4WWiMFBisvMHq2FyZ-131" value="สามารถถอนเงินลูกค้าได้ไหม" style="rhombus;whiteSpace=wrap;html=1;" vertex="1" parent="hnG4WWiMFBisvMHq2FyZ-34">
          <mxGeometry x="310" y="1255" width="190" height="80" as="geometry" />
        </mxCell>
        <mxCell id="hnG4WWiMFBisvMHq2FyZ-145" value="" style="edgeStyle=orthogonalEdgeStyle;rounded=0;orthogonalLoop=1;jettySize=auto;html=1;fontSize=12;startSize=8;endSize=8;" edge="1" parent="hnG4WWiMFBisvMHq2FyZ-34" source="hnG4WWiMFBisvMHq2FyZ-133" target="hnG4WWiMFBisvMHq2FyZ-144">
          <mxGeometry relative="1" as="geometry">
            <Array as="points">
              <mxPoint x="620" y="1495" />
            </Array>
          </mxGeometry>
        </mxCell>
        <mxCell id="hnG4WWiMFBisvMHq2FyZ-133" value="แจ้งเตือนเงินถอนไม่พอและทำการคืนเงินให้ลูกค้า" style="shape=parallelogram;perimeter=parallelogramPerimeter;whiteSpace=wrap;html=1;fixedSize=1;" vertex="1" parent="hnG4WWiMFBisvMHq2FyZ-34">
          <mxGeometry x="490" y="1355" width="260" height="60" as="geometry" />
        </mxCell>
        <mxCell id="hnG4WWiMFBisvMHq2FyZ-136" value="No ( เงินไม่พอถอน )" style="text;html=1;align=center;verticalAlign=middle;resizable=0;points=[];autosize=1;strokeColor=none;fillColor=none;fontSize=12;" vertex="1" parent="hnG4WWiMFBisvMHq2FyZ-34">
          <mxGeometry x="480" y="1255" width="120" height="30" as="geometry" />
        </mxCell>
        <mxCell id="hnG4WWiMFBisvMHq2FyZ-137" value="Yes ( เงินพอถอน )" style="text;html=1;align=center;verticalAlign=middle;resizable=0;points=[];autosize=1;strokeColor=none;fillColor=none;fontSize=12;" vertex="1" parent="hnG4WWiMFBisvMHq2FyZ-34">
          <mxGeometry x="200" y="1255" width="110" height="30" as="geometry" />
        </mxCell>
        <mxCell id="hnG4WWiMFBisvMHq2FyZ-143" value="" style="edgeStyle=orthogonalEdgeStyle;rounded=0;orthogonalLoop=1;jettySize=auto;html=1;fontSize=12;startSize=8;endSize=8;" edge="1" parent="hnG4WWiMFBisvMHq2FyZ-34" source="hnG4WWiMFBisvMHq2FyZ-140" target="hnG4WWiMFBisvMHq2FyZ-142">
          <mxGeometry relative="1" as="geometry">
            <Array as="points">
              <mxPoint x="170" y="1495" />
            </Array>
          </mxGeometry>
        </mxCell>
        <mxCell id="hnG4WWiMFBisvMHq2FyZ-140" value="จ่ายสินค้าให้ลูกค้าและทำการถอนเงิน" style="shape=parallelogram;perimeter=parallelogramPerimeter;whiteSpace=wrap;html=1;fixedSize=1;" vertex="1" parent="hnG4WWiMFBisvMHq2FyZ-34">
          <mxGeometry x="60" y="1355" width="220" height="60" as="geometry" />
        </mxCell>
        <mxCell id="hnG4WWiMFBisvMHq2FyZ-142" value="" style="whiteSpace=wrap;html=1;" vertex="1" parent="hnG4WWiMFBisvMHq2FyZ-34">
          <mxGeometry x="315" y="1465" width="120" height="60" as="geometry" />
        </mxCell>
        <mxCell id="hnG4WWiMFBisvMHq2FyZ-152" value="" style="edgeStyle=none;curved=1;rounded=0;orthogonalLoop=1;jettySize=auto;html=1;fontSize=12;startSize=8;endSize=8;entryX=0.49;entryY=0.117;entryDx=0;entryDy=0;entryPerimeter=0;" edge="1" parent="hnG4WWiMFBisvMHq2FyZ-34" source="hnG4WWiMFBisvMHq2FyZ-144" target="hnG4WWiMFBisvMHq2FyZ-150">
          <mxGeometry relative="1" as="geometry">
            <mxPoint x="375" y="1645" as="targetPoint" />
          </mxGeometry>
        </mxCell>
        <mxCell id="hnG4WWiMFBisvMHq2FyZ-144" value="อัปเดตเงินคงเหลือ" style="whiteSpace=wrap;html=1;" vertex="1" parent="hnG4WWiMFBisvMHq2FyZ-34">
          <mxGeometry x="315" y="1465" width="120" height="60" as="geometry" />
        </mxCell>
        <mxCell id="hnG4WWiMFBisvMHq2FyZ-149" value="" style="verticalLabelPosition=bottom;verticalAlign=top;html=1;shape=offPageConnector;rounded=0;size=0.5;" vertex="1" parent="hnG4WWiMFBisvMHq2FyZ-34">
          <mxGeometry x="360" y="1560" width="30" height="30" as="geometry" />
        </mxCell>
        <mxCell id="hnG4WWiMFBisvMHq2FyZ-150" value="ข" style="text;html=1;align=center;verticalAlign=middle;resizable=0;points=[];autosize=1;strokeColor=none;fillColor=none;fontFamily=Sarabun;fontSource=https%3A%2F%2Ffonts.googleapis.com%2Fcss%3Ffamily%3DSarabun;" vertex="1" parent="hnG4WWiMFBisvMHq2FyZ-34">
          <mxGeometry x="360" y="1555" width="30" height="30" as="geometry" />
        </mxCell>
        <mxCell id="lJksZ_Bv0LkZ56xk_LEL-1" value="หน้าถัดไป" style="text;html=1;align=center;verticalAlign=middle;resizable=0;points=[];autosize=1;strokeColor=none;fillColor=none;fontSize=16;" vertex="1" parent="hnG4WWiMFBisvMHq2FyZ-34">
          <mxGeometry x="375" y="1585" width="90" height="30" as="geometry" />
        </mxCell>
        <mxCell id="hnG4WWiMFBisvMHq2FyZ-37" value="&lt;font data-font-src=&quot;https://fonts.googleapis.com/css?family=Sarabun&quot; face=&quot;Sarabun&quot;&gt;โจทย์ปัญหา&lt;/font&gt;" style="swimlane;whiteSpace=wrap;html=1;" vertex="1" parent="1">
          <mxGeometry x="-720" y="320" width="640" height="240" as="geometry" />
        </mxCell>
        <mxCell id="hnG4WWiMFBisvMHq2FyZ-38" value="&lt;font data-font-src=&quot;https://fonts.googleapis.com/css?family=Sarabun&quot; face=&quot;Sarabun&quot; style=&quot;font-size: 14px;&quot;&gt;จงเขียน Flowchart เพื่อแสดงขั้นตอนการทำงาน ของเครื่องขายน้ำอัตโนมัติที่ชื่อว่า &quot;ตะพาบลอย&quot;&lt;br&gt;โดยจะต้องมีสินค้าดังนี้&lt;br&gt;&lt;u&gt;ประเภทน้ำ&lt;span style=&quot;white-space: pre;&quot;&gt;&#x9;&lt;/span&gt;&lt;span style=&quot;white-space: pre;&quot;&gt;&#x9;&lt;/span&gt;&lt;span style=&quot;white-space: pre;&quot;&gt;&#x9;&lt;/span&gt;&lt;span style=&quot;white-space: pre;&quot;&gt;&#x9;&lt;/span&gt;&lt;span style=&quot;white-space: pre;&quot;&gt;&#x9;&lt;/span&gt;&lt;span style=&quot;white-space: pre;&quot;&gt;&#x9;&lt;span style=&quot;white-space: pre;&quot;&gt;&#x9;&lt;/span&gt;ข&lt;/span&gt;นม&lt;/u&gt;&lt;br&gt;&lt;span style=&quot;white-space: pre;&quot;&gt;&#x9;&lt;/span&gt;- โค้ก กระป๋องละ 10 บาท&lt;span style=&quot;white-space: pre;&quot;&gt;&#x9;&lt;/span&gt;&lt;span style=&quot;white-space: pre;&quot;&gt;&#x9;&lt;/span&gt;&lt;span style=&quot;white-space: pre;&quot;&gt;&#x9;&lt;/span&gt;&lt;span style=&quot;white-space: pre;&quot;&gt;&#x9;&lt;/span&gt;- เมล็ดทานตะวัน 13 บาท&lt;br&gt;&lt;span style=&quot;white-space: pre;&quot;&gt;&#x9;&lt;/span&gt;- น้ำเขียว กระป๋องละ 12 บาท&lt;span style=&quot;white-space: pre;&quot;&gt;&#x9;&lt;/span&gt;&lt;span style=&quot;white-space: pre;&quot;&gt;&#x9;&lt;/span&gt;&lt;span style=&quot;white-space: pre;&quot;&gt;&#x9;&lt;/span&gt;- ถั่วแปบ 20 บาท&lt;br&gt;&lt;span style=&quot;white-space: pre;&quot;&gt;&#x9;&lt;/span&gt;- อเมริกาโน่ 30 บาท&lt;span style=&quot;white-space: pre;&quot;&gt;&#x9;&lt;/span&gt;&lt;span style=&quot;white-space: pre;&quot;&gt;&#x9;&lt;/span&gt;&lt;span style=&quot;white-space: pre;&quot;&gt;&#x9;&lt;/span&gt;&lt;span style=&quot;white-space: pre;&quot;&gt;&#x9;&lt;/span&gt;&lt;span style=&quot;white-space: pre;&quot;&gt;&#x9;&lt;/span&gt;- จิ้นส้มหมก 15 บาท&lt;br&gt;&lt;span style=&quot;white-space: pre;&quot;&gt;&#x9;&lt;/span&gt;- ลาเต้ หวานเจี๊ยบ 35 บาท&lt;span style=&quot;white-space: pre;&quot;&gt;&#x9;&lt;/span&gt;&lt;br&gt;&lt;br&gt;&lt;u&gt;สิ่งที่ระบบควรจะทำได้&lt;/u&gt;&lt;br&gt;&lt;span style=&quot;white-space: pre;&quot;&gt;&#x9;&lt;/span&gt;- ลูกค้าเลือกสินค้า, ระบบจะต้องรวมยอดขาย และรวมรายการสินค้าทั้งหมดที่ลูกค้าเลือก&lt;br&gt;&lt;span style=&quot;white-space: pre;&quot;&gt;&#x9;&lt;/span&gt;- สรุปยอดว่าเหลือเงินในตู้อีกเท่าไหร่ เหลือเหรียญอะไรบ้าง? ธนบัตรอะไรบ้าง? อย่างละเท่าไหร่?&lt;br&gt;&lt;br&gt;&lt;br&gt;&lt;/font&gt;" style="text;html=1;align=left;verticalAlign=middle;resizable=0;points=[];autosize=1;strokeColor=none;fillColor=none;fontSize=14;" vertex="1" parent="hnG4WWiMFBisvMHq2FyZ-37">
          <mxGeometry x="25" y="30" width="580" height="240" as="geometry" />
        </mxCell>
        <mxCell id="hnG4WWiMFBisvMHq2FyZ-114" value="" style="edgeStyle=none;curved=1;rounded=0;orthogonalLoop=1;jettySize=auto;html=1;fontSize=12;startSize=8;endSize=8;entryX=0.5;entryY=0;entryDx=0;entryDy=0;" edge="1" parent="1" source="hnG4WWiMFBisvMHq2FyZ-95" target="hnG4WWiMFBisvMHq2FyZ-92">
          <mxGeometry relative="1" as="geometry" />
        </mxCell>
        <mxCell id="hnG4WWiMFBisvMHq2FyZ-95" value="" style="ellipse;whiteSpace=wrap;html=1;" vertex="1" parent="1">
          <mxGeometry x="-411" y="1520" width="10" height="10" as="geometry" />
        </mxCell>
        <mxCell id="hnG4WWiMFBisvMHq2FyZ-113" value="" style="edgeStyle=none;orthogonalLoop=1;jettySize=auto;html=1;rounded=0;fontSize=12;startSize=8;endSize=8;curved=1;exitX=0.502;exitY=0.962;exitDx=0;exitDy=0;exitPerimeter=0;" edge="1" parent="1" source="hnG4WWiMFBisvMHq2FyZ-90" target="hnG4WWiMFBisvMHq2FyZ-95">
          <mxGeometry width="140" relative="1" as="geometry">
            <mxPoint x="-395" y="1503" as="sourcePoint" />
            <mxPoint x="-395" y="1520" as="targetPoint" />
            <Array as="points" />
          </mxGeometry>
        </mxCell>
        <mxCell id="hnG4WWiMFBisvMHq2FyZ-146" value="" style="endArrow=classic;html=1;rounded=0;" edge="1" parent="1">
          <mxGeometry width="50" height="50" relative="1" as="geometry">
            <mxPoint x="-428.29" y="2395" as="sourcePoint" />
            <mxPoint x="-428" y="2410" as="targetPoint" />
          </mxGeometry>
        </mxCell>
        <mxCell id="hnG4WWiMFBisvMHq2FyZ-147" value="" style="verticalLabelPosition=bottom;verticalAlign=top;html=1;shape=offPageConnector;rounded=0;size=0.5;" vertex="1" parent="1">
          <mxGeometry x="-443" y="2365" width="30" height="30" as="geometry" />
        </mxCell>
        <mxCell id="hnG4WWiMFBisvMHq2FyZ-148" value="ข" style="text;html=1;align=center;verticalAlign=middle;resizable=0;points=[];autosize=1;strokeColor=none;fillColor=none;fontFamily=Sarabun;fontSource=https%3A%2F%2Ffonts.googleapis.com%2Fcss%3Ffamily%3DSarabun;" vertex="1" parent="1">
          <mxGeometry x="-443" y="2360" width="30" height="30" as="geometry" />
        </mxCell>
        <mxCell id="hnG4WWiMFBisvMHq2FyZ-156" value="" style="edgeStyle=none;curved=1;rounded=0;orthogonalLoop=1;jettySize=auto;html=1;fontSize=12;startSize=8;endSize=8;" edge="1" parent="1" source="hnG4WWiMFBisvMHq2FyZ-154">
          <mxGeometry relative="1" as="geometry">
            <mxPoint x="-574" y="2500" as="targetPoint" />
          </mxGeometry>
        </mxCell>
        <mxCell id="hnG4WWiMFBisvMHq2FyZ-158" value="" style="edgeStyle=none;curved=1;rounded=0;orthogonalLoop=1;jettySize=auto;html=1;fontSize=12;startSize=8;endSize=8;" edge="1" parent="1" source="hnG4WWiMFBisvMHq2FyZ-154">
          <mxGeometry relative="1" as="geometry">
            <mxPoint x="-282" y="2500" as="targetPoint" />
          </mxGeometry>
        </mxCell>
        <mxCell id="hnG4WWiMFBisvMHq2FyZ-154" value="สรุปยอดขาย" style="rhombus;whiteSpace=wrap;html=1;" vertex="1" parent="1">
          <mxGeometry x="-468" y="2460" width="80" height="80" as="geometry" />
        </mxCell>
        <mxCell id="hnG4WWiMFBisvMHq2FyZ-171" value="" style="edgeStyle=orthogonalEdgeStyle;rounded=0;orthogonalLoop=1;jettySize=auto;html=1;fontSize=12;startSize=8;endSize=8;entryX=0.547;entryY=-0.016;entryDx=0;entryDy=0;entryPerimeter=0;exitX=1;exitY=0.5;exitDx=0;exitDy=0;" edge="1" parent="1" source="hnG4WWiMFBisvMHq2FyZ-173" target="hnG4WWiMFBisvMHq2FyZ-169">
          <mxGeometry relative="1" as="geometry">
            <mxPoint x="-162" y="2500" as="sourcePoint" />
            <mxPoint x="-42" y="2500" as="targetPoint" />
            <Array as="points">
              <mxPoint x="-107" y="2500" />
            </Array>
          </mxGeometry>
        </mxCell>
        <mxCell id="hnG4WWiMFBisvMHq2FyZ-160" value="" style="edgeStyle=none;curved=1;rounded=0;orthogonalLoop=1;jettySize=auto;html=1;fontSize=12;startSize=8;endSize=8;" edge="1" parent="1" source="hnG4WWiMFBisvMHq2FyZ-159" target="hnG4WWiMFBisvMHq2FyZ-154">
          <mxGeometry relative="1" as="geometry" />
        </mxCell>
        <mxCell id="hnG4WWiMFBisvMHq2FyZ-159" value="" style="ellipse;whiteSpace=wrap;html=1;" vertex="1" parent="1">
          <mxGeometry x="-438" y="2410" width="20" height="20" as="geometry" />
        </mxCell>
        <mxCell id="NH9lnKQHpwtld4qGCddG-14" value="" style="edgeStyle=orthogonalEdgeStyle;rounded=0;orthogonalLoop=1;jettySize=auto;html=1;fontSize=12;startSize=8;endSize=8;" edge="1" parent="1" source="hnG4WWiMFBisvMHq2FyZ-163" target="NH9lnKQHpwtld4qGCddG-13">
          <mxGeometry relative="1" as="geometry" />
        </mxCell>
        <mxCell id="hnG4WWiMFBisvMHq2FyZ-163" value="เหรียญ 1 บาท&lt;br&gt;&lt;div&gt;เหรียญ 2 บาท&lt;/div&gt;&lt;div&gt;เหรียญ 5 บาท&lt;/div&gt;&lt;div style=&quot;&quot;&gt;เหรียญ 10 บาท&lt;/div&gt;&lt;div&gt;เหลือเหรียญอย่างละเท่าไหร่&lt;/div&gt;" style="whiteSpace=wrap;html=1;align=center;" vertex="1" parent="1">
          <mxGeometry x="-370" y="2570" width="152" height="100" as="geometry" />
        </mxCell>
        <mxCell id="NH9lnKQHpwtld4qGCddG-18" value="" style="edgeStyle=orthogonalEdgeStyle;rounded=0;orthogonalLoop=1;jettySize=auto;html=1;fontSize=12;startSize=8;endSize=8;" edge="1" parent="1" source="hnG4WWiMFBisvMHq2FyZ-165" target="NH9lnKQHpwtld4qGCddG-17">
          <mxGeometry relative="1" as="geometry">
            <Array as="points">
              <mxPoint x="-728" y="2770" />
            </Array>
          </mxGeometry>
        </mxCell>
        <mxCell id="hnG4WWiMFBisvMHq2FyZ-165" value="&lt;div&gt;เครื่องดื่ม&lt;/div&gt;&lt;div&gt;&amp;nbsp; &amp;nbsp; &amp;nbsp;โค้ก กระป๋อง&lt;/div&gt;&lt;div&gt;&amp;nbsp; &amp;nbsp; &amp;nbsp;น้ำเขียว กระป๋อง&lt;/div&gt;&lt;div&gt;&amp;nbsp; &amp;nbsp; &amp;nbsp;อเมริกาโน่&amp;nbsp;&lt;/div&gt;&lt;div&gt;&amp;nbsp; &amp;nbsp; &amp;nbsp;ลาเต้หวานเจี๊ยบ&lt;/div&gt;&lt;div&gt;เครืองดื่มทั้งหมดขายได้เท่าไหร่&lt;/div&gt;" style="whiteSpace=wrap;html=1;align=center;" vertex="1" parent="1">
          <mxGeometry x="-808" y="2570" width="160" height="100" as="geometry" />
        </mxCell>
        <mxCell id="hnG4WWiMFBisvMHq2FyZ-177" value="" style="edgeStyle=none;curved=1;rounded=0;orthogonalLoop=1;jettySize=auto;html=1;fontSize=12;startSize=8;endSize=8;entryX=1;entryY=0.5;entryDx=0;entryDy=0;" edge="1" parent="1" source="hnG4WWiMFBisvMHq2FyZ-169" target="hnG4WWiMFBisvMHq2FyZ-163">
          <mxGeometry relative="1" as="geometry">
            <mxPoint x="-114" y="2810" as="targetPoint" />
          </mxGeometry>
        </mxCell>
        <mxCell id="NH9lnKQHpwtld4qGCddG-12" value="" style="edgeStyle=orthogonalEdgeStyle;rounded=0;orthogonalLoop=1;jettySize=auto;html=1;fontSize=12;startSize=8;endSize=8;" edge="1" parent="1" source="hnG4WWiMFBisvMHq2FyZ-169" target="NH9lnKQHpwtld4qGCddG-11">
          <mxGeometry relative="1" as="geometry">
            <Array as="points">
              <mxPoint x="-110" y="2770" />
            </Array>
          </mxGeometry>
        </mxCell>
        <mxCell id="hnG4WWiMFBisvMHq2FyZ-169" value="ธนบัตร 20 บาท&lt;br&gt;&lt;div&gt;ธนบัตร 50 บาท&lt;br&gt;&lt;/div&gt;&lt;div&gt;ธนบัตร 100 บาท&lt;br&gt;&lt;/div&gt;&lt;div&gt;เหลือธนบัตรอย่างละเท่าไหร่&lt;/div&gt;" style="whiteSpace=wrap;html=1;align=center;" vertex="1" parent="1">
          <mxGeometry x="-190" y="2570" width="152" height="100" as="geometry" />
        </mxCell>
        <mxCell id="hnG4WWiMFBisvMHq2FyZ-173" value="ยอดเงินที่คงเหลือ" style="rhombus;whiteSpace=wrap;html=1;" vertex="1" parent="1">
          <mxGeometry x="-290" y="2460" width="80" height="80" as="geometry" />
        </mxCell>
        <mxCell id="hnG4WWiMFBisvMHq2FyZ-175" style="edgeStyle=none;curved=1;rounded=0;orthogonalLoop=1;jettySize=auto;html=1;entryX=0.795;entryY=-0.005;entryDx=0;entryDy=0;entryPerimeter=0;fontSize=12;startSize=8;endSize=8;" edge="1" parent="1" source="hnG4WWiMFBisvMHq2FyZ-173" target="hnG4WWiMFBisvMHq2FyZ-163">
          <mxGeometry relative="1" as="geometry" />
        </mxCell>
        <mxCell id="NH9lnKQHpwtld4qGCddG-5" value="" style="edgeStyle=orthogonalEdgeStyle;rounded=0;orthogonalLoop=1;jettySize=auto;html=1;fontSize=12;startSize=8;endSize=8;entryX=0.547;entryY=0.023;entryDx=0;entryDy=0;exitX=0;exitY=0.5;exitDx=0;exitDy=0;entryPerimeter=0;" edge="1" parent="1" source="NH9lnKQHpwtld4qGCddG-3" target="hnG4WWiMFBisvMHq2FyZ-165">
          <mxGeometry relative="1" as="geometry">
            <mxPoint x="-760" y="2500" as="targetPoint" />
            <Array as="points">
              <mxPoint x="-720" y="2500" />
              <mxPoint x="-720" y="2564" />
              <mxPoint x="-721" y="2564" />
            </Array>
          </mxGeometry>
        </mxCell>
        <mxCell id="NH9lnKQHpwtld4qGCddG-7" value="" style="edgeStyle=orthogonalEdgeStyle;rounded=0;orthogonalLoop=1;jettySize=auto;html=1;fontSize=12;startSize=8;endSize=8;" edge="1" parent="1">
          <mxGeometry relative="1" as="geometry">
            <mxPoint x="-620" y="2541" as="sourcePoint" />
            <mxPoint x="-550" y="2570" as="targetPoint" />
          </mxGeometry>
        </mxCell>
        <mxCell id="NH9lnKQHpwtld4qGCddG-3" value="ประเภทสินค้า" style="rhombus;whiteSpace=wrap;html=1;" vertex="1" parent="1">
          <mxGeometry x="-660" y="2460" width="80" height="80" as="geometry" />
        </mxCell>
        <mxCell id="NH9lnKQHpwtld4qGCddG-16" value="" style="edgeStyle=orthogonalEdgeStyle;rounded=0;orthogonalLoop=1;jettySize=auto;html=1;fontSize=12;startSize=8;endSize=8;" edge="1" parent="1" source="NH9lnKQHpwtld4qGCddG-8" target="NH9lnKQHpwtld4qGCddG-15">
          <mxGeometry relative="1" as="geometry">
            <Array as="points">
              <mxPoint x="-460" y="2620" />
            </Array>
          </mxGeometry>
        </mxCell>
        <mxCell id="NH9lnKQHpwtld4qGCddG-8" value="ขนม&lt;br&gt;&amp;nbsp; &amp;nbsp; &amp;nbsp;เมล็ดทานตะวัน&amp;nbsp;&lt;br&gt;&amp;nbsp; &amp;nbsp; &amp;nbsp;ถั่วแปบ&lt;br&gt;&amp;nbsp; &amp;nbsp; &amp;nbsp;จิ้นส้มหมก&lt;div&gt;ขนมทั้งหมดขายได้กี่ชิ้น&lt;/div&gt;" style="whiteSpace=wrap;html=1;" vertex="1" parent="1">
          <mxGeometry x="-630" y="2570" width="140" height="100" as="geometry" />
        </mxCell>
        <mxCell id="NH9lnKQHpwtld4qGCddG-11" value="" style="whiteSpace=wrap;html=1;" vertex="1" parent="1">
          <mxGeometry x="-500" y="2740" width="120" height="60" as="geometry" />
        </mxCell>
        <mxCell id="NH9lnKQHpwtld4qGCddG-13" value="" style="whiteSpace=wrap;html=1;" vertex="1" parent="1">
          <mxGeometry x="-500" y="2740" width="120" height="60" as="geometry" />
        </mxCell>
        <mxCell id="NH9lnKQHpwtld4qGCddG-15" value="" style="whiteSpace=wrap;html=1;" vertex="1" parent="1">
          <mxGeometry x="-500" y="2740" width="120" height="60" as="geometry" />
        </mxCell>
        <mxCell id="NH9lnKQHpwtld4qGCddG-20" value="" style="edgeStyle=none;curved=1;rounded=0;orthogonalLoop=1;jettySize=auto;html=1;fontSize=12;startSize=8;endSize=8;" edge="1" parent="1" source="NH9lnKQHpwtld4qGCddG-17" target="NH9lnKQHpwtld4qGCddG-19">
          <mxGeometry relative="1" as="geometry" />
        </mxCell>
        <mxCell id="NH9lnKQHpwtld4qGCddG-17" value="รวมยอดทั้งหมด ( ยอดสินค้า และ เงินที่เหลือ" style="whiteSpace=wrap;html=1;" vertex="1" parent="1">
          <mxGeometry x="-500" y="2740" width="120" height="60" as="geometry" />
        </mxCell>
        <mxCell id="NH9lnKQHpwtld4qGCddG-19" value="&lt;font face=&quot;Sarabun&quot;&gt;สิ้นสุด&lt;/font&gt;" style="ellipse;whiteSpace=wrap;html=1;" vertex="1" parent="1">
          <mxGeometry x="-505" y="2860" width="130" height="30" as="geometry" />
        </mxCell>
        <mxCell id="lJksZ_Bv0LkZ56xk_LEL-2" value="หน้าถัดไป" style="text;html=1;align=center;verticalAlign=middle;resizable=0;points=[];autosize=1;strokeColor=none;fillColor=none;fontSize=16;" vertex="1" parent="1">
          <mxGeometry x="-401" y="1131" width="90" height="30" as="geometry" />
        </mxCell>
      </root>
    </mxGraphModel>
  </diagram>
  <diagram id="EtLKzFYI7pAuOm3wXOCd" name="หน้า-2">
    <mxGraphModel dx="1144" dy="543" grid="0" gridSize="10" guides="1" tooltips="1" connect="1" arrows="1" fold="1" page="0" pageScale="1" pageWidth="827" pageHeight="1169" math="0" shadow="0">
      <root>
        <mxCell id="0" />
        <mxCell id="1" parent="0" />
      </root>
    </mxGraphModel>
  </diagram>
</mxfile>
